<?xml version="1.0" encoding="UTF-8" standalone="no"?>
<!DOCTYPE svg PUBLIC "-//W3C//DTD SVG 1.1//EN" "http://www.w3.org/Graphics/SVG/1.1/DTD/svg11.dtd">
<svg version="1.1" xmlns="http://www.w3.org/2000/svg" xmlns:xlink="http://www.w3.org/1999/xlink" preserveAspectRatio="xMidYMid meet" viewBox="0 0 640 640" width="640" height="640"><defs><path d="M164.6 0L164.94 0.01L165.29 0.01L165.64 0.02L165.98 0.02L166.33 0.03L166.68 0.04L167.03 0.05L167.38 0.07L167.73 0.08L168.08 0.1L168.43 0.11L168.78 0.13L169.13 0.15L169.48 0.17L169.83 0.19L170.18 0.22L170.54 0.24L170.89 0.27L171.24 0.3L171.6 0.33L171.95 0.36L172.3 0.39L172.66 0.42L173.01 0.46L173.36 0.49L173.72 0.53L174.07 0.57L174.43 0.61L174.78 0.65L175.13 0.69L175.49 0.73L175.84 0.78L176.2 0.83L176.55 0.87L176.91 0.92L177.26 0.97L177.62 1.02L177.97 1.08L179.39 1.31L180.8 1.56L182.19 1.85L183.56 2.16L184.91 2.49L186.26 2.86L187.58 3.25L188.89 3.67L190.18 4.12L191.46 4.59L192.72 5.09L193.96 5.61L195.19 6.16L196.4 6.73L197.59 7.34L198.77 7.96L199.93 8.61L201.07 9.29L202.2 9.99L203.3 10.71L204.39 11.46L205.47 12.23L206.52 13.03L207.56 13.85L208.58 14.7L209.58 15.56L210.56 16.45L211.52 17.37L212.47 18.3L213.4 19.26L214.3 20.25L215.19 21.25L216.07 22.28L216.92 23.32L217.75 24.39L218.56 25.48L219.36 26.59L220.13 27.73L220.89 28.88L221.62 30.06L222.35 31.28L223.06 32.52L223.75 33.78L224.42 35.06L225.07 36.36L225.69 37.69L226.3 39.03L226.88 40.4L227.44 41.78L227.98 43.18L228.5 44.61L228.99 46.05L229.47 47.51L229.92 48.99L230.35 50.49L230.76 52L231.14 53.54L231.5 55.09L231.84 56.66L232.16 58.25L232.45 59.85L232.72 61.48L232.97 63.12L233.2 64.77L233.4 66.45L233.57 68.14L233.73 69.84L233.86 71.56L233.96 73.3L234.04 75.06L234.1 76.82L234.14 78.61L234.14 80.41L234.13 82.22L234.09 84.05L234.02 85.89L233.93 87.75L233.82 89.62L233.68 91.51L233.51 93.41L233.32 95.3L233.11 97.18L232.88 99.04L232.62 100.89L232.35 102.72L232.05 104.53L231.73 106.33L231.4 108.11L231.04 109.88L230.67 111.63L230.29 113.37L229.88 115.09L229.46 116.8L229.03 118.5L228.58 120.18L228.12 121.84L227.64 123.5L227.16 125.14L226.66 126.76L226.15 128.38L225.63 129.98L225.11 131.56L224.57 133.14L224.03 134.7L223.48 136.25L222.92 137.79L222.36 139.31L221.79 140.83L221.21 142.33L220.64 143.82L220.06 145.3L219.48 146.77L218.89 148.23L218.31 149.68L217.72 151.12L217.14 152.54L216.55 153.96L215.97 155.37L215.39 156.77L214.82 158.16L214.29 159.43L213.76 160.7L213.24 161.97L212.72 163.23L212.2 164.5L211.68 165.76L211.17 167.02L210.67 168.27L210.17 169.53L209.67 170.79L209.18 172.04L208.7 173.29L208.23 174.55L207.76 175.8L207.3 177.05L206.85 178.31L206.41 179.56L205.97 180.82L205.55 182.07L205.14 183.33L204.73 184.59L204.34 185.85L203.96 187.12L203.6 188.38L203.24 189.65L202.9 190.93L202.57 192.2L202.26 193.48L201.96 194.77L201.67 196.05L201.4 197.35L201.14 198.64L200.91 199.95L200.69 201.25L200.48 202.57L200.29 203.89L200.13 205.21L199.98 206.54L199.84 207.88L199.73 209.23L199.46 212.32L199.12 215.28L198.72 218.1L198.27 220.79L197.75 223.35L197.18 225.79L196.57 228.1L195.9 230.3L195.19 232.38L194.44 234.34L193.65 236.2L192.83 237.94L191.97 239.59L191.08 241.13L190.16 242.57L189.22 243.92L188.25 245.18L187.27 246.35L186.27 247.44L185.25 248.44L184.23 249.36L183.19 250.21L182.16 250.99L181.11 251.69L180.08 252.33L179.04 252.9L178.01 253.42L176.99 253.87L175.98 254.28L174.98 254.63L174 254.93L173.05 255.19L172.11 255.4L171.2 255.58L170.33 255.72L169.48 255.83L168.66 255.91L167.89 255.96L167.15 255.99L166.46 256L165.53 255.98L164.61 255.93L163.69 255.85L162.78 255.74L161.87 255.6L160.97 255.42L160.07 255.21L159.18 254.98L158.3 254.71L157.43 254.42L156.56 254.1L155.71 253.75L154.86 253.37L154.03 252.96L153.2 252.53L152.39 252.06L151.58 251.58L150.8 251.07L150.02 250.53L149.26 249.96L148.51 249.38L147.77 248.76L147.06 248.13L146.35 247.47L145.67 246.79L145 246.08L144.34 245.36L143.71 244.61L143.09 243.84L142.5 243.05L141.92 242.24L141.37 241.41L140.83 240.56L140.32 239.7L139.82 238.81L139.35 237.9L138.91 236.98L138.48 236.04L138.08 235.08L137.71 234.11L137.55 233.66L137.39 233.2L137.24 232.74L137.09 232.27L136.95 231.81L136.81 231.34L136.68 230.86L136.55 230.39L136.43 229.9L136.31 229.42L136.2 228.93L136.09 228.44L135.99 227.95L135.88 227.45L135.79 226.96L135.69 226.45L135.6 225.95L135.51 225.44L135.43 224.93L135.35 224.42L135.27 223.9L135.19 223.38L135.12 222.86L135.05 222.34L134.98 221.81L134.91 221.28L134.84 220.75L134.78 220.22L134.72 219.69L134.66 219.15L134.6 218.61L134.54 218.07L134.48 217.53L134.43 216.98L134.37 216.43L134.32 215.88L134.26 215.33L134.21 214.78L134.15 214.23L134.1 213.67L134.06 213.22L134.01 212.74L133.96 212.23L133.91 211.7L133.85 211.15L133.79 210.57L133.73 209.98L133.66 209.37L133.6 208.75L133.52 208.11L133.45 207.46L133.37 206.81L133.29 206.14L133.2 205.47L133.11 204.79L133.02 204.11L132.92 203.43L132.82 202.76L132.71 202.08L132.6 201.41L132.49 200.75L132.37 200.09L132.25 199.45L132.12 198.81L131.99 198.19L131.86 197.59L131.72 197L131.58 196.44L131.43 195.89L131.27 195.37L131.12 194.87L130.96 194.4L130.79 193.95L130.62 193.54L130.44 193.15L130.26 192.81L130.07 192.49L129.88 192.21L129.68 191.98L129.48 191.78L129.47 191.78L129.46 191.77L129.45 191.77L129.44 191.76L129.42 191.76L129.41 191.75L129.39 191.75L129.37 191.74L129.35 191.74L129.33 191.73L129.31 191.73L129.28 191.72L129.26 191.72L129.23 191.71L129.2 191.71L129.17 191.7L129.14 191.69L129.1 191.69L129.07 191.68L129.03 191.68L128.99 191.67L128.96 191.67L128.92 191.66L128.87 191.66L128.83 191.65L128.78 191.65L128.74 191.64L128.69 191.64L128.64 191.63L128.59 191.63L128.54 191.63L128.48 191.62L128.43 191.62L128.37 191.62L128.31 191.61L128.25 191.61L128.19 191.61L128.13 191.61L128.06 191.61L128 191.61L127.94 191.61L127.88 191.61L127.82 191.61L127.76 191.61L127.71 191.61L127.66 191.62L127.6 191.62L127.55 191.62L127.5 191.62L127.45 191.63L127.41 191.63L127.36 191.63L127.32 191.64L127.27 191.64L127.23 191.64L127.19 191.65L127.15 191.65L127.11 191.66L127.08 191.66L127.04 191.66L127.01 191.67L126.98 191.67L126.95 191.68L126.92 191.68L126.89 191.68L126.86 191.69L126.84 191.69L126.82 191.69L126.79 191.7L126.72 191.71L126.7 191.71L126.69 191.71L126.68 191.71L126.67 191.72L126.66 191.72L126.65 191.72L126.65 191.72L126.63 191.7L126.42 191.9L126.22 192.15L126.02 192.43L125.82 192.75L125.63 193.1L125.45 193.49L125.27 193.91L125.1 194.36L124.93 194.83L124.77 195.33L124.61 195.86L124.46 196.41L124.31 196.98L124.17 197.57L124.03 198.18L123.9 198.8L123.77 199.43L123.65 200.08L123.53 200.74L123.41 201.4L123.3 202.07L123.19 202.75L123.09 203.43L122.99 204.11L122.9 204.79L122.81 205.46L122.72 206.14L122.64 206.8L122.56 207.46L122.48 208.11L122.41 208.75L122.34 209.37L122.27 209.98L122.21 210.57L122.15 211.15L122.1 211.7L122.04 212.23L121.99 212.74L121.95 213.22L121.9 213.67L121.85 214.23L121.8 214.78L121.74 215.33L121.69 215.88L121.63 216.43L121.58 216.98L121.52 217.53L121.46 218.07L121.41 218.61L121.35 219.15L121.29 219.69L121.23 220.22L121.16 220.75L121.1 221.28L121.03 221.81L120.96 222.34L120.89 222.86L120.81 223.38L120.74 223.9L120.66 224.42L120.58 224.93L120.49 225.44L120.4 225.95L120.31 226.45L120.22 226.95L120.12 227.45L120.02 227.95L119.91 228.44L119.8 228.93L119.69 229.42L119.57 229.9L119.45 230.38L119.32 230.85L119.19 231.33L119.05 231.8L118.91 232.26L118.76 232.73L118.61 233.19L118.45 233.64L118.29 234.09L117.91 235.07L117.51 236.03L117.09 236.97L116.64 237.89L116.18 238.8L115.68 239.69L115.17 240.56L114.63 241.41L114.08 242.24L113.5 243.05L112.91 243.84L112.29 244.61L111.66 245.35L111 246.08L110.34 246.79L109.65 247.47L108.95 248.13L108.23 248.76L107.49 249.37L106.75 249.96L105.98 250.53L105.21 251.06L104.42 251.58L103.62 252.06L102.8 252.53L101.98 252.96L101.14 253.37L100.3 253.75L99.44 254.1L98.58 254.42L97.7 254.72L96.82 254.98L95.93 255.22L95.04 255.42L94.13 255.6L93.22 255.74L92.31 255.85L91.39 255.93L90.47 255.98L89.55 256L88.85 255.99L88.12 255.96L87.34 255.91L86.53 255.83L85.68 255.72L84.8 255.58L83.89 255.4L82.96 255.19L82 254.93L81.03 254.63L80.03 254.28L79.02 253.87L78 253.42L76.97 252.9L75.93 252.33L74.89 251.69L73.85 250.99L72.82 250.21L71.78 249.37L70.76 248.44L69.74 247.44L68.74 246.35L67.76 245.18L66.79 243.93L65.85 242.58L64.93 241.13L64.04 239.59L63.18 237.94L62.36 236.2L61.57 234.34L60.81 232.38L60.1 230.3L59.44 228.11L58.82 225.79L58.25 223.36L57.74 220.79L57.28 218.1L56.88 215.28L56.55 212.32L56.27 209.23L56.16 207.88L56.03 206.54L55.88 205.21L55.71 203.89L55.52 202.57L55.32 201.26L55.09 199.95L54.85 198.65L54.6 197.35L54.33 196.06L54.04 194.77L53.74 193.48L53.43 192.2L53.1 190.93L52.76 189.65L52.4 188.38L52.03 187.12L51.65 185.85L51.26 184.59L50.86 183.33L50.44 182.07L50.02 180.82L49.59 179.56L49.14 178.31L48.69 177.05L48.23 175.8L47.77 174.55L47.29 173.29L46.81 172.04L46.32 170.79L45.83 169.53L45.33 168.28L44.82 167.02L44.31 165.76L43.8 164.5L43.28 163.24L42.76 161.97L42.23 160.7L41.71 159.43L41.18 158.16L40.6 156.77L40.02 155.37L39.44 153.96L38.86 152.54L38.27 151.12L37.69 149.68L37.1 148.23L36.52 146.77L35.94 145.3L35.36 143.82L34.78 142.33L34.21 140.83L33.64 139.31L33.08 137.79L32.52 136.25L31.97 134.7L31.43 133.14L30.89 131.56L30.36 129.98L29.85 128.38L29.34 126.76L28.84 125.14L28.35 123.5L27.88 121.85L27.42 120.18L26.97 118.5L26.54 116.8L26.12 115.1L25.71 113.37L25.33 111.63L24.95 109.88L24.6 108.11L24.27 106.33L23.95 104.53L23.65 102.72L23.37 100.89L23.12 99.04L22.88 97.18L22.67 95.3L22.48 93.41L22.18 89.66L21.98 85.97L21.87 82.33L21.86 78.75L21.95 75.23L22.13 71.77L22.41 68.37L22.77 65.04L23.23 61.77L23.78 58.57L24.42 55.43L25.15 52.37L25.97 49.37L26.88 46.45L27.87 43.61L28.94 40.83L30.11 38.14L31.35 35.53L32.68 32.99L34.09 30.54L35.58 28.17L37.15 25.89L38.8 23.69L40.53 21.58L42.33 19.56L44.21 17.63L46.17 15.8L48.2 14.06L50.3 12.41L52.48 10.86L54.72 9.42L57.04 8.07L59.43 6.82L61.89 5.68L64.41 4.64L67 3.71L69.66 2.88L72.38 2.17L75.17 1.57L78.02 1.08L78.38 1.02L78.73 0.97L79.09 0.92L79.44 0.87L79.8 0.83L80.15 0.78L80.51 0.73L80.86 0.69L81.22 0.65L81.57 0.61L81.93 0.57L82.28 0.53L82.63 0.49L82.99 0.46L83.34 0.42L83.7 0.39L84.05 0.36L84.4 0.33L84.76 0.3L85.11 0.27L85.46 0.24L85.82 0.22L86.17 0.19L86.52 0.17L86.87 0.15L87.22 0.13L87.57 0.11L87.92 0.1L88.27 0.08L88.62 0.07L88.97 0.05L89.32 0.04L89.67 0.03L90.02 0.02L90.37 0.02L90.71 0.01L91.06 0.01L91.41 0L91.75 0L92.1 0L93.1 0.01L94.09 0.02L95.07 0.05L96.03 0.09L96.99 0.13L97.93 0.19L98.85 0.25L99.77 0.33L100.68 0.41L101.57 0.5L102.45 0.6L103.32 0.7L104.18 0.82L105.02 0.93L105.86 1.06L106.68 1.19L107.49 1.33L108.29 1.47L109.08 1.61L109.86 1.77L110.62 1.92L111.38 2.08L112.12 2.24L112.85 2.41L113.57 2.57L114.28 2.74L114.98 2.92L115.67 3.09L116.35 3.27L117.01 3.44L117.67 3.62L118.31 3.79L118.95 3.97L119.57 4.15L120.18 4.32L120.79 4.5L121.38 4.67L121.96 4.84L122.53 5.01L123.09 5.17L123.23 5.21L123.36 5.25L123.49 5.29L123.63 5.33L123.76 5.37L123.89 5.41L124.02 5.45L124.16 5.49L124.29 5.53L124.42 5.56L124.55 5.6L124.68 5.64L124.81 5.68L124.93 5.72L125.06 5.75L125.19 5.79L125.32 5.83L125.44 5.86L125.57 5.9L125.69 5.93L125.82 5.97L125.94 6L126.06 6.04L126.18 6.07L126.3 6.11L126.42 6.14L126.54 6.17L126.66 6.21L126.78 6.24L126.89 6.27L127.01 6.3L127.12 6.33L127.24 6.36L127.35 6.39L127.46 6.42L127.57 6.45L127.68 6.47L127.79 6.5L127.89 6.53L128 6.56L128.1 6.53L128.21 6.5L128.32 6.47L128.43 6.45L128.54 6.42L128.65 6.39L128.76 6.36L128.87 6.33L128.99 6.3L129.1 6.27L129.22 6.24L129.34 6.21L129.46 6.17L129.58 6.14L129.7 6.11L129.82 6.07L129.94 6.04L130.06 6L130.18 5.97L130.31 5.93L130.43 5.9L130.56 5.86L130.69 5.83L130.81 5.79L130.94 5.75L131.07 5.72L131.2 5.68L131.33 5.64L131.46 5.6L131.59 5.56L131.72 5.53L131.85 5.49L131.98 5.45L132.11 5.41L132.25 5.37L132.38 5.33L132.51 5.29L132.64 5.25L132.78 5.21L132.91 5.17L133.47 5.01L134.05 4.84L134.63 4.67L135.22 4.5L135.82 4.32L136.43 4.15L137.06 3.97L137.69 3.79L138.34 3.62L138.99 3.44L139.66 3.27L140.34 3.09L141.02 2.92L141.72 2.74L142.43 2.57L143.15 2.41L143.89 2.24L144.63 2.08L145.38 1.92L146.15 1.77L146.93 1.61L147.71 1.47L148.51 1.33L149.33 1.19L150.15 1.06L150.98 0.93L151.83 0.82L152.69 0.7L153.55 0.6L154.44 0.5L155.33 0.41L156.23 0.33L157.15 0.25L158.08 0.19L159.02 0.13L159.97 0.09L160.94 0.05L161.91 0.02L162.9 0.01L163.9 0L164.25 0L164.6 0ZM161.42 17.08L160.2 17.13L159.02 17.2L157.85 17.29L156.7 17.4L155.58 17.52L154.47 17.66L153.39 17.81L152.33 17.97L151.28 18.14L150.26 18.33L149.25 18.53L148.26 18.73L147.29 18.94L146.34 19.16L145.41 19.39L144.49 19.62L143.59 19.85L142.71 20.09L141.84 20.33L140.99 20.57L140.15 20.81L139.33 21.05L138.53 21.28L137.74 21.51L136.96 21.74L136.2 21.97L135.45 22.18L134.71 22.4L133.99 22.6L133.27 22.79L132.58 22.97L131.89 23.14L131.21 23.3L130.55 23.45L129.9 23.58L129.25 23.7L128.62 23.8L128 23.88L127.38 23.8L126.74 23.7L126.1 23.58L125.45 23.45L124.79 23.3L124.11 23.14L123.42 22.97L122.73 22.79L122.02 22.6L121.29 22.39L120.56 22.18L119.81 21.97L119.04 21.74L118.27 21.51L117.48 21.28L116.67 21.05L115.85 20.81L115.02 20.57L114.16 20.33L113.3 20.09L112.41 19.85L111.51 19.62L110.6 19.39L109.66 19.16L108.71 18.94L107.74 18.73L106.75 18.53L105.75 18.33L104.72 18.14L103.68 17.97L102.61 17.81L101.53 17.66L100.42 17.52L99.3 17.4L98.15 17.29L96.99 17.2L95.8 17.13L94.59 17.08L93.35 17.05L92.1 17.04L91.83 17.04L91.56 17.04L91.29 17.04L91.02 17.05L90.75 17.05L90.48 17.06L90.2 17.06L89.93 17.07L89.65 17.08L89.37 17.09L89.1 17.1L88.82 17.11L88.54 17.12L88.26 17.14L87.97 17.15L87.69 17.17L87.41 17.19L87.12 17.21L86.83 17.23L86.55 17.25L86.26 17.27L85.97 17.29L85.68 17.32L85.38 17.34L85.09 17.37L84.8 17.4L84.5 17.43L84.2 17.46L83.91 17.49L83.61 17.52L83.31 17.55L83.01 17.59L82.71 17.63L82.4 17.67L82.1 17.7L81.79 17.75L81.49 17.79L81.18 17.83L80.87 17.88L80.56 17.92L78.53 18.27L76.54 18.7L74.59 19.21L72.68 19.81L70.8 20.48L68.97 21.23L67.18 22.07L65.43 22.98L63.73 23.98L62.07 25.05L60.46 26.2L58.89 27.43L57.38 28.73L55.92 30.12L54.5 31.58L53.14 33.11L51.84 34.72L50.59 36.41L49.4 38.17L48.26 40.01L47.18 41.92L46.16 43.91L45.21 45.97L44.31 48.1L43.48 50.31L42.72 52.58L42.02 54.93L41.38 57.35L40.82 59.84L40.32 62.41L39.9 65.04L39.55 67.74L39.27 70.51L39.06 73.35L38.93 76.26L38.88 79.24L38.9 82.28L39 85.4L39.19 88.57L39.45 91.82L39.81 95.19L40.24 98.5L40.75 101.75L41.34 104.95L41.98 108.1L42.69 111.21L43.46 114.26L44.28 117.28L45.15 120.26L46.07 123.2L47.02 126.11L48.02 128.99L49.04 131.84L50.09 134.66L51.17 137.46L52.26 140.24L53.37 143.01L54.49 145.75L55.62 148.49L56.75 151.22L57.88 153.94L59 156.65L60.11 159.37L61.21 162.08L62.29 164.81L63.34 167.53L64.37 170.27L65.36 173.02L66.32 175.78L67.24 178.56L68.11 181.36L68.94 184.19L69.71 187.04L70.42 189.92L71.07 192.83L71.66 195.77L72.18 198.75L72.62 201.77L72.98 204.83L73.26 207.94L73.4 209.63L73.57 211.28L73.75 212.86L73.95 214.39L74.17 215.87L74.41 217.3L74.67 218.67L74.95 220L75.24 221.27L75.55 222.49L75.87 223.66L76.21 224.78L76.56 225.85L76.93 226.88L77.31 227.86L77.71 228.79L78.11 229.68L78.53 230.52L78.96 231.32L79.4 232.07L79.85 232.78L80.31 233.45L80.78 234.07L81.26 234.66L81.74 235.2L82.23 235.71L82.73 236.17L83.24 236.6L83.74 236.99L84.26 237.34L84.78 237.66L85.3 237.94L85.83 238.18L86.35 238.39L86.88 238.56L87.42 238.71L87.95 238.81L88.48 238.89L89.01 238.94L89.54 238.95L89.94 238.94L90.34 238.92L90.74 238.88L91.14 238.82L91.54 238.74L91.93 238.65L92.32 238.55L92.71 238.43L93.09 238.29L93.48 238.14L93.85 237.98L94.23 237.8L94.6 237.6L94.97 237.4L95.33 237.18L95.69 236.95L96.05 236.7L96.4 236.44L96.74 236.17L97.08 235.89L97.41 235.6L97.74 235.29L98.06 234.98L98.37 234.65L98.68 234.32L98.98 233.97L99.27 233.61L99.56 233.25L99.83 232.87L100.1 232.49L100.36 232.09L100.62 231.69L100.86 231.28L101.09 230.86L101.32 230.44L101.54 230L101.74 229.56L101.94 229.12L102.13 228.66L102.3 228.2L102.68 227.08L103.01 225.88L103.31 224.59L103.58 223.23L103.82 221.79L104.04 220.3L104.24 218.74L104.42 217.14L104.6 215.48L104.77 213.79L104.94 212.07L105.11 210.32L105.29 208.54L105.47 206.75L105.68 204.95L105.9 203.15L106.15 201.35L106.42 199.56L106.73 197.78L107.07 196.03L107.45 194.3L107.88 192.61L108.36 190.95L108.88 189.34L109.47 187.78L110.12 186.27L110.83 184.83L111.62 183.46L112.47 182.16L113.41 180.95L114.43 179.82L115.53 178.78L116.73 177.85L118.02 177.02L119.41 176.3L120.9 175.69L122.5 175.21L124.22 174.86L126.05 174.65L128 174.58L129.95 174.65L131.78 174.86L133.49 175.21L135.09 175.69L136.59 176.3L137.98 177.02L139.27 177.85L140.47 178.78L141.57 179.82L142.59 180.95L143.53 182.16L144.38 183.46L145.17 184.83L145.88 186.27L146.53 187.78L147.12 189.34L147.65 190.95L148.12 192.61L148.55 194.3L148.93 196.03L149.27 197.78L149.58 199.56L149.85 201.35L150.1 203.15L150.32 204.95L150.53 206.75L150.72 208.54L150.89 210.32L151.06 212.07L151.23 213.79L151.4 215.48L151.58 217.14L151.76 218.74L151.96 220.3L152.18 221.79L152.42 223.23L152.69 224.59L152.99 225.88L153.33 227.08L153.7 228.2L153.88 228.66L154.06 229.12L154.26 229.56L154.47 230L154.68 230.44L154.91 230.86L155.14 231.28L155.39 231.69L155.64 232.09L155.9 232.49L156.17 232.87L156.45 233.25L156.73 233.61L157.03 233.97L157.33 234.32L157.63 234.65L157.95 234.98L158.27 235.29L158.59 235.6L158.93 235.89L159.26 236.17L159.61 236.44L159.96 236.7L160.31 236.95L160.67 237.18L161.03 237.4L161.4 237.6L161.77 237.8L162.15 237.98L162.53 238.14L162.91 238.29L163.29 238.43L163.68 238.55L164.07 238.65L164.47 238.74L164.86 238.82L165.26 238.88L165.66 238.92L166.06 238.94L166.46 238.95L166.99 238.94L167.52 238.89L168.06 238.81L168.59 238.71L169.12 238.56L169.65 238.39L170.18 238.18L170.7 237.94L171.23 237.66L171.74 237.34L172.26 236.99L172.77 236.6L173.27 236.17L173.77 235.71L174.26 235.2L174.75 234.66L175.22 234.07L175.69 233.45L176.15 232.78L176.6 232.07L177.04 231.32L177.47 230.52L177.89 229.68L178.29 228.79L178.69 227.86L179.07 226.88L179.44 225.85L179.79 224.78L180.13 223.66L180.46 222.49L180.77 221.27L181.06 220L181.33 218.67L181.59 217.3L181.83 215.87L182.05 214.39L182.25 212.86L182.44 211.28L182.6 209.63L182.74 207.94L183.02 204.83L183.38 201.77L183.83 198.75L184.34 195.77L184.93 192.83L185.58 189.92L186.29 187.04L187.07 184.19L187.89 181.36L188.76 178.56L189.68 175.78L190.64 173.02L191.64 170.27L192.66 167.53L193.72 164.81L194.79 162.09L195.89 159.37L197 156.65L198.12 153.94L199.25 151.22L200.38 148.49L201.51 145.75L202.63 143.01L203.74 140.24L204.83 137.46L205.91 134.66L206.96 131.84L207.99 128.99L208.98 126.11L209.93 123.2L210.85 120.26L211.72 117.28L212.54 114.27L213.31 111.21L214.02 108.1L214.67 104.95L215.25 101.75L215.76 98.5L216.2 95.19L216.55 91.82L216.82 88.57L217 85.4L217.1 82.28L217.13 79.24L217.07 76.26L216.94 73.35L216.74 70.51L216.46 67.74L216.11 65.04L215.68 62.41L215.19 59.84L214.62 57.35L213.99 54.93L213.29 52.58L212.52 50.31L211.69 48.1L210.8 45.97L209.84 43.91L208.82 41.92L207.75 40.01L206.61 38.17L205.42 36.41L204.17 34.72L202.86 33.11L201.5 31.58L200.09 30.12L198.62 28.73L197.11 27.43L195.55 26.2L193.94 25.05L192.28 23.98L190.57 22.98L188.83 22.07L187.03 21.23L185.2 20.48L183.33 19.81L181.41 19.21L179.46 18.7L177.47 18.27L175.44 17.92L175.13 17.88L174.82 17.83L174.51 17.79L174.21 17.75L173.9 17.7L173.6 17.67L173.29 17.63L172.99 17.59L172.69 17.55L172.39 17.52L172.09 17.49L171.79 17.46L171.5 17.43L171.2 17.4L170.91 17.37L170.61 17.34L170.32 17.32L170.03 17.29L169.74 17.27L169.45 17.25L169.17 17.23L168.88 17.21L168.59 17.19L168.31 17.17L168.03 17.15L167.74 17.14L167.46 17.12L167.18 17.11L166.9 17.1L166.63 17.09L166.35 17.08L166.07 17.07L165.8 17.06L165.52 17.06L165.25 17.05L164.98 17.05L164.71 17.04L164.44 17.04L164.17 17.04L163.9 17.04L162.65 17.05L161.42 17.08Z" id="caDnQWcID"></path><path d="M153.71 34.95C143.33 37.77 136.06 38.72 128.83 40.55C121.59 38.72 114.32 37.77 103.97 34.96C102.26 34.5 100.51 35.5 100.05 37.2C99.58 38.91 100.59 40.67 102.3 41.13C108.1 42.69 112.95 43.7 117.24 44.57C112.49 46.74 107.35 49.75 101.24 54.22C99.82 55.26 99.51 57.26 100.55 58.69C101.59 60.11 103.59 60.42 105.01 59.38C115.12 52.01 121.79 49.11 128.83 47.16C135.87 49.11 142.54 52.01 152.65 59.38C154.08 60.42 156.08 60.11 157.12 58.69C158.16 57.26 157.84 55.27 156.42 54.22C150.31 49.75 145.16 46.74 140.41 44.57C144.71 43.7 149.56 42.69 155.37 41.13C157.08 40.66 158.08 38.91 157.62 37.2C157.16 35.5 155.4 34.5 153.71 34.95Z" id="dBwUNPPus"></path></defs><g><g><g><use xlink:href="#caDnQWcID" opacity="1" fill="#ffffff" fill-opacity="1"></use><g><use xlink:href="#caDnQWcID" opacity="1" fill-opacity="0" stroke="#000000" stroke-width="1" stroke-opacity="0"></use></g></g><g><use xlink:href="#dBwUNPPus" opacity="1" fill="#ffffff" fill-opacity="1"></use><g><use xlink:href="#dBwUNPPus" opacity="1" fill-opacity="0" stroke="#000000" stroke-width="1" stroke-opacity="0"></use></g></g></g></g></svg>