<!--?xml version="1.0" encoding="utf-8"?-->
<!-- Generator: Adobe Illustrator 15.1.0, SVG Export Plug-In . SVG Version: 6.00 Build 0)  -->

<svg version="1.1" id="_x32_" xmlns="http://www.w3.org/2000/svg" xmlns:xlink="http://www.w3.org/1999/xlink" x="0px" y="0px" width="512px" height="512px" viewBox="0 0 512 512" style="width: 256px; height: 256px; opacity: 1;" xml:space="preserve">
<style type="text/css">

	.st0{fill:#4B4B4B;}

</style>
<g>
	<path class="st0" d="M355.949,2.156C346.48,0.719,337.012,0,327.809,0c-26.875,0-47.156,5.969-61.984,10.344
		c-3.578,1.063-7.031,2.078-9.828,2.766c-2.797-0.688-6.234-1.703-9.813-2.766C231.371,5.969,211.074,0,184.199,0
		c-9.203,0-18.688,0.719-28.156,2.156C79.199,13.703,35.605,86.188,44.965,186.813c4.734,50.75,22.078,92.594,37.391,129.5
		c14.109,34.031,27.453,66.188,30.188,102.141C118.949,502.875,161.215,512,179.09,512c24.734,0,47.844-17.594,57.484-43.813
		c4.438-12,5.797-26,7.234-40.844c1.125-11.703,3.766-39.094,9.453-43.938l0.031,0.031c0.141,0,1.078-0.219,2.703-0.219
		c1.781,0,2.75,0.25,2.969,0.344c5.453,4.688,8.109,32.078,9.234,43.781c1.453,14.844,2.797,28.844,7.219,40.875
		c9.656,26.188,32.766,43.781,57.5,43.781c17.891,0,60.156-9.125,66.547-93.547c2.719-35.953,16.047-68.109,30.172-102.141
		c15.313-36.906,32.672-78.75,37.391-129.5C476.418,86.188,432.809,13.688,355.949,2.156z M433.105,183.641
		c-8.438,90.578-61.297,148.797-67.625,232.234c-3.484,46-18.406,62.031-32.563,62.031c-10.703,0-20.969-9.156-25.516-21.5
		c-10.547-28.594,2.25-107.25-51.406-107.25c-53.641,0-40.844,78.656-51.391,107.25c-4.547,12.344-14.813,21.5-25.516,21.5
		c-14.156,0-29.078-16.031-32.563-62.031c-6.328-83.438-59.188-141.656-67.625-232.234c-8.141-87.438,27.719-139.609,82.219-147.797
		c8.281-1.25,15.953-1.766,23.078-1.766c33.781,0,55.344,11.703,71.797,13.688c16.484-1.984,38.031-13.688,71.813-13.688
		c7.125,0,14.781,0.516,23.078,1.766C405.387,44.031,441.262,96.203,433.105,183.641z" style="fill: rgb(75, 75, 75);"></path>
	<path class="st0" d="M315.246,74.406c-0.922-3.406-4.438-5.406-7.828-4.5c-20.75,5.625-35.297,7.531-49.766,11.188
		c-14.469-3.656-29.016-5.563-49.719-11.172C204.512,69,201.012,71,200.09,74.406s1.094,6.938,4.516,7.844
		c11.594,3.125,21.297,5.156,29.875,6.891c-9.5,4.344-19.781,10.359-32,19.297c-2.844,2.078-3.469,6.078-1.375,8.938
		c2.078,2.844,6.078,3.469,8.922,1.375c20.219-14.734,33.547-20.531,47.625-24.438c14.094,3.906,27.422,9.703,47.656,24.438
		c2.844,2.094,6.859,1.469,8.938-1.375c2.078-2.859,1.438-6.844-1.406-8.938c-12.219-8.938-22.516-14.953-32.031-19.297
		c8.609-1.734,18.313-3.766,29.938-6.891C314.152,81.313,316.168,77.813,315.246,74.406z" style="fill: rgb(75, 75, 75);"></path>
</g>
</svg>
